<svg xmlns="http://www.w3.org/2000/svg" viewBox="25 25 483 483"><circle cx="266.5" cy="266.5" r="241.5" fill="#ffde59" fill-opacity=".9"/><path fill="#fff" d="m402 68.7 5 4.4 2.8 2.8 1.5 1.5 4.4 4.4 2.8 2.8 2.6 2.6c1.8 2.5 1.8 2.5 2.4 5-.8 3.6-2.6 5-5.2 7.6l-1.4 1.4-4.4 4.3-3 3-7.5 7.2c5 6 10.3 11.4 15.8 16.8a2621.5 2621.5 0 0 1 7.5 7.4c3 3 3 5.5 3 9.7-.5 3.4-2 5.5-4.3 8.1a18.5 18.5 0 0 1-11 1c-2.8-2-2.8-2-5-4-2.2.1-2.2.1-4 1 .4 3 1 4.8 2.6 7.3 2 3.8 1.7 6.7.4 10.7a15.8 15.8 0 0 1-6 5c-5.6.4-8.2.2-13-3h-4c.4 3 1 5 2.6 7.5 1.8 3.1 2 5 1.4 8.5a14 14 0 0 1-6 7 21 21 0 0 1-9 0c-1.9-1.2-1.9-1.2-3.7-3l-2-1.8c-4.8-4.7-9.4-9.4-14-14.2l-2.2-2.4-2-2.2c-1.9-1.6-1.9-1.6-3.9-1.3-3.2 1.4-5.4 3.7-7.9 6.2l-1.7 1.7a6122.4 6122.4 0 0 1-9.6 9.7l-11 11-11.5 11.5-19.3 19.3-24.7 24.8a43130 43130 0 0 0-48.2 48.3l-1.6 1.6c-2.7 2.6-2.7 2.6-4.7 5.8l2.7.8c10.7 4 18 13.6 23 23.4a53.9 53.9 0 0 1 1.3 37.3 50.5 50.5 0 0 1-27.2 28.5 51 51 0 0 1-19 3.4h-2.4a42.1 42.1 0 0 1-23.4-6.4h-3c-1.3 2-1.3 2-2.5 4.5a44.2 44.2 0 0 1-24.5 19.5l-2.6 1.1a45 45 0 0 1-32.8-1.5c-11-5-18.5-11-24.6-21.6l-1.2-2a50.7 50.7 0 0 1-2.8-38 53.2 53.2 0 0 1 23-28h3l-1.5-3.2-2-4.4-.9-2.2a46.9 46.9 0 0 1-1.6-34 52.7 52.7 0 0 1 28-30 54 54 0 0 1 38-.4c5 2.2 9.8 5 14 8.3v2l1.8.7c2.8 1.7 4 3.5 6 6.2l1.7 2.6a19.5 19.5 0 0 1 2.5 6.5 272 272 0 0 0 17-15.8l2.6-2.7a5957 5957 0 0 0 14.8-14.9l11.7-11.7a28992.6 28992.6 0 0 1 32-32l20.4-20.6 2-1.9 30.3-30.5a25745.9 25745.9 0 0 1 31.3-31.4l19.3-19.4 13.1-13.3 7.6-7.7 8.3-8.2 2.4-2.5L393 72l2-2c2.5-1.7 4-1.7 7-1.3z"/><path d="m402 68.7 5 4.4 2.8 2.8 1.5 1.5 4.4 4.4 2.8 2.8 2.6 2.6c1.8 2.5 1.8 2.5 2.4 5-.8 3.6-2.6 5-5.2 7.6l-1.4 1.4-4.4 4.3-3 3-7.5 7.2c5 6 10.3 11.4 15.8 16.8a2621.5 2621.5 0 0 1 7.5 7.4c3 3 3 5.5 3 9.7-.5 3.4-2 5.5-4.3 8.1a18.5 18.5 0 0 1-11 1c-2.8-2-2.8-2-5-4-2.2.1-2.2.1-4 1 .4 3 1 4.8 2.6 7.3 2 3.8 1.7 6.7.4 10.7a15.8 15.8 0 0 1-6 5c-5.6.4-8.2.2-13-3h-4c.4 3 1 5 2.6 7.5 1.8 3.1 2 5 1.4 8.5a14 14 0 0 1-6 7 21 21 0 0 1-9 0c-1.9-1.2-1.9-1.2-3.7-3l-2-1.8c-4.8-4.7-9.4-9.4-14-14.2l-2.2-2.4-2-2.2c-1.9-1.6-1.9-1.6-3.9-1.3-3.2 1.4-5.4 3.7-7.9 6.2l-1.7 1.7a6122.4 6122.4 0 0 1-9.6 9.7l-11 11-11.5 11.5-19.3 19.3-24.7 24.8a43130 43130 0 0 0-48.2 48.3l-1.6 1.6c-2.7 2.6-2.7 2.6-4.7 5.8l2.7.8c10.7 4 18 13.6 23 23.4a53.9 53.9 0 0 1 1.3 37.3 50.5 50.5 0 0 1-27.2 28.5 51 51 0 0 1-19 3.4h-2.4a42.1 42.1 0 0 1-23.4-6.4h-3c-1.3 2-1.3 2-2.5 4.5a44.2 44.2 0 0 1-24.5 19.5l-2.6 1.1a45 45 0 0 1-32.8-1.5c-11-5-18.5-11-24.6-21.6l-1.2-2a50.7 50.7 0 0 1-2.8-38 53.2 53.2 0 0 1 23-28h3l-1.5-3.2-2-4.4-.9-2.2a46.9 46.9 0 0 1-1.6-34 52.7 52.7 0 0 1 28-30 54 54 0 0 1 38-.4c5 2.2 9.8 5 14 8.3v2l1.8.7c2.8 1.7 4 3.5 6 6.2l1.7 2.6a19.5 19.5 0 0 1 2.5 6.5 272 272 0 0 0 17-15.8l2.6-2.7a5957 5957 0 0 0 14.8-14.9l11.7-11.7a28992.6 28992.6 0 0 1 32-32l20.4-20.6 2-1.9 30.3-30.5a25745.9 25745.9 0 0 1 31.3-31.4l19.3-19.4 13.1-13.3 7.6-7.7 8.3-8.2 2.4-2.5L393 72l2-2c2.5-1.7 4-1.7 7-1.3zm-4.5 12.4-2 2-2.3 2.3-2.6 2.6-2.7 2.7-5.9 6a11161.4 11161.4 0 0 1-21.6 21.7 28830.4 28830.4 0 0 1-35 35.3l-19.6 19.5-2 2-31.7 32a20034.8 20034.8 0 0 1-66.4 66.5l-8 8-8.5 8.6-2.6 2.6c-6.3 6.2-6.3 6.2-10.7 6.8H173l-.5-2a40.2 40.2 0 0 0-18.4-25.8 44 44 0 0 0-33.4-4 44.2 44.2 0 0 0-24.6 22 42.6 42.6 0 0 0-1 29.8c2 4.6 4.4 9.2 7.7 13 1.2 2 1.2 2 1.2 4-1.5 3-3.5 3.5-6.4 4.7A42.3 42.3 0 0 0 75 364.7a44.2 44.2 0 0 0 2.5 33 43.8 43.8 0 0 0 27.6 20.3 41.8 41.8 0 0 0 31-6.3 39.2 39.2 0 0 0 15-20.3c1-2.7 1-2.7 2.7-3.6 2.6 0 4.8.3 7.2 1v2a48.6 48.6 0 0 0 34.8 6.5 40.3 40.3 0 0 0 23-16.5 47.1 47.1 0 0 0 6.2-30 49 49 0 0 0-10-20h-2l-.7-1.9c-1.7-2.9-3.5-3.7-6.4-5.2l-3-1.5-2.9-1.5-2.5-1.3a550.4 550.4 0 0 0-5.5-2.7c.4-4.8 2.7-7.2 6-10.4l1.5-1.6a3928.5 3928.5 0 0 0 9-9l10.3-10.2 10.7-10.6 20.3-20.3 23-23a40794.8 40794.8 0 0 1 44.2-44l13-12.8a28350.1 28350.1 0 0 1 8.3-8.7l2-1.9c2-1.6 3.1-2.2 5.7-2.5 4.6 2 7.2 5.4 10.3 9a45.5 45.5 0 0 0 6.7 6l1 2h2v2a32.8 32.8 0 0 0 4 3.5 98 98 0 0 1 6 5.5h3l-.9-1.7-1-2.3-1.2-1.7a17.7 17.7 0 0 1-.9-10.3c1.8-3 3.8-5.4 7-7 7.8-.8 7.8-.8 11.3 1.5l1.7 1.5h4l-.9-1.7-1-2.3-1.2-1.7a18 18 0 0 1-.9-10.3c2.4-4 4.6-6.2 9-7.5 4.1-.8 6.4.3 10 2.5 2.8.7 2.8.7 5 1-.6-3.3-1.7-5.4-4-8h-2v-2h-2v-2c-2.3-2.7-2.3-2.7-5-5h-2l-.7-1.7c-1.6-2.9-3.7-4.3-6.3-6.3-2.9-2.8-4.8-5-5.5-9.2.5-2.8.5-2.8 2.5-4.5l2-1.3v-2l4-2v-2l3-1c1.8-1.8 1.8-1.8 3.6-4 3.2-3.9 3.2-3.9 5.4-5a22.1 22.1 0 0 0-5.4-7.5l-1.8-1.8-1.8-1.7-1.6-1.7c-2-1.8-2-1.7-3.9.1z"/><path d="M298 232.7c3.4 1.5 5.7 3.5 8.3 6.2l2.6 2.6 3 3 2.8 2.8 7.6 7.7 7.7 7.7a10375.6 10375.6 0 0 1 16 16l2.6 2.7c2 2 4 3.7 6.3 5.3l.8-2.2a46 46 0 0 1 25.7-24.3 54 54 0 0 1 36.8.3 53.4 53.4 0 0 1 29 31c4.7 14.5 1 28.7-5.3 42.2l2 1.3a53 53 0 0 1 24.6 32.5c.6 3.5.7 7 .6 10.4v2.3a50.3 50.3 0 0 1-15 34.3 53.1 53.1 0 0 1-37 13.4 51.9 51.9 0 0 1-33.3-15.3c-3-3.8-5.8-7.7-8-12-4.3.6-7.8 2.2-11.7 4-5.3 2.2-10.5 2.2-16 2.2h-2.4a47.1 47.1 0 0 1-32.4-12.6 53.6 53.6 0 0 1-14.7-40c.2-5.3 1.1-9.8 3.2-14.6l.8-2a51.1 51.1 0 0 1 25.2-25l-54-54c1.6-3.2 2.5-4.7 5-7 4 1.6 6.8 4.5 9.8 7.5l1.7 1.7a1730.8 1730.8 0 0 1 9.4 9.4l8.1 8 10.5 10.4 8 8 3.8 3.8 5.4 5.3 1.6 1.6c3 3 4.6 5.1 4.7 9.3-2 3-4.6 3.8-7.8 5a48.5 48.5 0 0 0-11.2 6h-2v2h-2v2h-2l-.8 2.2a89.5 89.5 0 0 1-3.7 7.8 41.6 41.6 0 0 0-2.3 28.8 41.2 41.2 0 0 0 11.8 17.2l1.8 1.5c9.5 8 20.3 8.6 32.2 7.5 7-1.5 12.4-4.6 18-9 2-1 2-1 4.5-1 3.7 1.5 4.6 4.4 6.1 8a29 29 0 0 0 6.4 10v2l1.8 1a62.8 62.8 0 0 1 6 3.5 40.2 40.2 0 0 0 29.5 6 39.7 39.7 0 0 0 30.1-48 42.2 42.2 0 0 0-17.4-24.5 83.4 83.4 0 0 0-8.7-3.8c-2.3-1.2-2.3-1.2-3.7-3.2-.6-2-.6-2 .5-4.3l2-2.7c6.6-11 10.2-21 7.2-34a45.4 45.4 0 0 0-17.3-24 46.7 46.7 0 0 0-33.2-4 39 39 0 0 0-22.8 19 153.4 153.4 0 0 0-3.6 9.6c-1.4 2.4-1.4 2.4-3.7 3.5-3.8 0-5-1.7-7.8-4.3l-2.6-2.5-2.3-2.3-1.8-1.7c-1.2-1.3-1.2-1.3-1.2-3.3l-1.8-.8a24.5 24.5 0 0 1-6-4.7l-1.8-1.8c-1.4-1.7-1.4-1.7-1.4-3.7l-2-.8c-2-1.2-2-1.2-3-4.2a95.8 95.8 0 0 0-4-2l-3.7-3.4-2-2-2-2-2-2.2-2-2-2-1.8c-1.3-1.6-1.3-1.6-1.3-3.6h-2v-2l-1.8-.8a26 26 0 0 1-5.9-4.6l-1.6-1.7c-1.5-1.8-1.5-1.8-2.5-4.8zm-161-163c2.4 2 2.4 2 5.1 4.8l1.6 1.5 5 5 3.6 3.6 9.8 10 10.2 10.1 19.2 19.4a41068.2 41068.2 0 0 1 67.3 67.6c-1.3 2.8-2.5 5-5 7-2 0-2 0-4.5-2.3-2.5-2.7-2.5-2.7-3.5-5.7l-3-1v-2l-1.8-.8a24.5 24.5 0 0 1-6-4.7l-1.8-1.8c-1.4-1.7-1.4-1.7-1.4-3.7h-2v-2l-2-.8c-2-1.2-2-1.2-3-4.2l-1.7-.9a17.8 17.8 0 0 1-8.3-8.3c-1.3-2.4-2.6-2.7-5-3.8-2.2-2-2.2-2-4-4v-2l-4-2v-2h-2v-2l-1.7-.7c-4-2.2-6.8-5-8.3-9.3l-2-1c-2.4-1.2-3-2.4-4-5h-2v-2l-4-2v-2h-2v-2l-1.7-.7c-3-1.7-4.9-3.8-7.3-6.3l-2-2-2.3-2.2-2-2c-1.7-1.8-1.7-1.8-1.7-3.8l-1.7-.7a22.1 22.1 0 0 1-6.3-5.3v-2l-2-.8c-2-1.2-2-1.2-3-4.2h-2v-2l-4-2v-2l-1.8-.9c-2.2-1-2.2-1-5.2-3l-11 11c5 5.5 10 10.7 15.3 15.7a22 22 0 0 1 6 7.8c-.2 3.1-1.2 4.2-3.4 6.5l-1.8 2a23 23 0 0 1-6 3.8l-2 4c-1.5 1.8-1.5 1.8-3 3h-2l-.7 1.8a25.3 25.3 0 0 1-5.3 6.3c-3.2 3-3.2 3-5 7a87.7 87.7 0 0 0 8.4-3.8c4.5-1.6 6.3-1.3 10.6.7 4 3.2 5.8 6 6.7 11-.3 4.7-2.9 8.3-5.7 12a37.1 37.1 0 0 0 8-4c4.7-.8 8.2-.4 12.5 1.8 3 2.6 4.2 4.5 5 8.4 0 5.6-.9 8.5-4.5 12.8l3 1 1-3 5-4c1-1 2-2.2 2.8-3.3a69.8 69.8 0 0 1 9.1-8.8 97.5 97.5 0 0 0 8.2-8.5c2-1.4 2-1.4 4.2-1.3 3.5 1.2 5.2 3 7.8 5.5l1.4 1.5 4.7 4.7 3.3 3.3 8.6 8.7 8.7 8.8 17.2 17.4a20.3 20.3 0 0 1-5 7 25.6 25.6 0 0 1-8.4-6.2l-2.6-2.6-2.8-2.8-2.9-2.9-7.5-7.6-7.7-7.7-15-15.2-3.4 3-1.9 1.5a124.4 124.4 0 0 0-8.4 8.2l-5.3 5.5-1.7 2c-3.9 4-6.8 6-12.4 7-4.3-1.3-6.3-2.3-9-5.9a19 19 0 0 1 0-11.3c1.5-1.7 1.5-1.7 3-3 .7-2 .7-2 1-4-4.2-.4-4.2-.4-7.9 1.5-3.2 2.3-6.3 2-10 1.5-3-1-4.5-1.8-6-4.7a13 13 0 0 1 .2-10l1.7-3.3 2-5c-1.7-.9-1.7-.9-4-1l-2.7 2a14.6 14.6 0 0 1-12.3 2c-3-2.4-3-2.4-5-5l-1-1c-.7-3.8-1-7.5 1.2-10.9l1.7-1.8 2-2 12-12.3 2.7-2.6a4216 4216 0 0 1 6.4-6.4 127.5 127.5 0 0 0-9.9-10.8l-2-1.9a495 495 0 0 0-4-3.9l-2-1.9-1.8-1.7c-1.7-2.4-1.6-3.9-1.3-6.8 1.4-1.8 1.4-1.8 3-3h2l.8-1.8a21.2 21.2 0 0 1 4.2-5.4l1.7-1.7 1.8-1.8 1.8-1.8c6.3-6.2 6.3-6.2 11.7-4.5z"/><path d="M432.4 354.7a30.4 30.4 0 0 1 13 15.5c1.3 8.5 1 16.4-4 23.7a27 27 0 0 1-18.7 11c-9 .3-15.7-2.5-22.3-8.5a29 29 0 0 1-6.8-20c.7-6.5 3.6-13 8.3-17.7a29.8 29.8 0 0 1 30.5-4zm-307 0a27.4 27.4 0 0 1 13 15.8 30 30 0 0 1-3.5 23.2 30 30 0 0 1-20 11.3c-7.3.4-13.7-1.9-19.3-6.5a27.8 27.8 0 0 1-9-20 29.5 29.5 0 0 1 7.3-18.8h2v-2c9.2-6 19.3-7.5 29.5-3zm70.3-21a34.8 34.8 0 0 1 14.1 14.2 32 32 0 0 1-.8 22 28.6 28.6 0 0 1-16 13.8 29 29 0 0 1-22.3-3.2 27.3 27.3 0 0 1-11.8-17.8c-1-8.2 1.5-14.9 5.8-21.8a30.4 30.4 0 0 1 31-7.3zm167.2 2.5c5.4 4 9 9.4 10.7 16a35 35 0 0 1-4.3 21.7 29 29 0 0 1-19.4 10.8 30 30 0 0 1-20.8-7.6 28 28 0 0 1-7.6-18.9c.4-7.9 3-14 8.4-19.8 9.2-8 22.6-8.2 33-2.2zm48.6-53.7a32.5 32.5 0 0 1 14 17.3c1.5 7.8.2 14.4-3.9 21.2a26.8 26.8 0 0 1-11.7 9.8l-2 1c-17.7 1.3-17.7 1.3-24-4-5.4-5-9.5-10.3-10.3-17.8-.2-9 1.2-16 7.5-22.6a28.3 28.3 0 0 1 30.4-4.9zm-263.7 1.8a27 27 0 0 1 11.1 15.5c1 8.7.3 15.8-5 23-4.8 5.2-9.2 8.6-16.4 9.4-8 .1-14.9-.2-21.6-5.4a33 33 0 0 1-9.4-20.4 30 30 0 0 1 9.5-20c9.6-7.2 21.3-8 31.8-2zM400.1 84.8c3 1.5 4.8 3.4 6.8 6 0 4-2.9 6.1-5.7 9l-1.4 1.3a3058.6 3058.6 0 0 0-7.5 7.3l-7.4 7.3a217 217 0 0 0 14.4 15.5l2.2 2.2 5.4 5.3-1 3-3 1-10.7-10.4a679.5 679.5 0 0 0-3.7-3.6l-5.2-5-1.7-1.7c-3.7-3.7-3.7-3.7-3.8-6.4 1.5-2.6 3.4-4.5 5.6-6.6l2.7-2.6 2.8-2.8 5.6-5.5 2.5-2.4c2-1.8 2-1.8 3-4a268.4 268.4 0 0 0-18 17 1675.8 1675.8 0 0 1-12 12l-2 1.8a111.5 111.5 0 0 0-7.8 8.5 43 43 0 0 1-6 6c-5 4.3-9.6 9-14.3 13.7a7717.6 7717.6 0 0 1-9 9l-32 32.1-3.6 3.5-5.7 5.7c-4.9 4.8-4.9 4.8-9.4 10a43.8 43.8 0 0 1-7.3 6.7 116.9 116.9 0 0 0-8.4 9 70.7 70.7 0 0 1-9.6 9 3656.7 3656.7 0 0 1-9.5 9.5l-2.3 2.4a432 432 0 0 1-4.9 4.7 97 97 0 0 0-5.2 6 62.4 62.4 0 0 1-8.4 8 37.7 37.7 0 0 0-4.5 4.8l-2.2 2.6h-2v2l-5 4a378.8 378.8 0 0 0-3.6 4.4c-2 2.3-4.3 4.2-6.7 6.2a97.3 97.3 0 0 0-6.7 6.4l-7 7-4-1c.4-3 .7-4.6 2.7-6.8l2.1-1.7a39 39 0 0 0 6.2-6 41.7 41.7 0 0 1 6-6 51.9 51.9 0 0 0 6.5-6.5 44.4 44.4 0 0 1 6-6c6.2-5.3 12-11.4 18-17.3a1684.5 1684.5 0 0 1 11-11.2l16.8-16.8a4139.1 4139.1 0 0 0 14-13.9l42.5-42.8 24.8-24.8 21.5-21.6a3078 3078 0 0 0 22-22.2 827.7 827.7 0 0 0 4-4l5.4-5.3 1.5-1.7c3.6-3.4 3.6-3.4 6.3-3.3zm-266.4 0c3 1.3 4.8 3 7 5.4l1.5 1.4 4.7 4.8 3.4 3.4 9.2 9.2a15164.6 15164.6 0 0 1 28 28 48709.5 48709.5 0 0 1 63.4 63.7l-4 4-1.7-1.7a142507.8 142507.8 0 0 0-80-80 13926 13926 0 0 1-21.4-21.5 2388.1 2388.1 0 0 0-6.9-7c-1.9-1.8-1.9-1.8-4-2.8 2.6 3.5 2.6 3.5 6 6v2h2c1.6 1.6 1.6 1.6 3.3 3.8a54.8 54.8 0 0 0 8.7 8.2c2 3 2 3 2 5-1.4 3-3.5 4.7-6 7a408 408 0 0 0-8.2 8.3l-3.2 3.5-2 1.8-1.6 1.7-1.5 1.6c-1.6 1.1-1.6 1.1-5.6 1.1.5-4.6 2.2-6.6 5.5-9.8l2.7-2.7 3-2.8 2.8-2.8 7-6.9a217 217 0 0 0-14.3-15.4l-2.2-2.2-5.4-5.4c3.6-9.2 3.6-9.2 7.8-8.9z"/><path fill="#ffde59" d="M192 342.4c5 2.7 8.1 6 10 11.3.3 6 0 9.8-3 15-4 4.3-8 6.2-13.8 6.3-5.3 0-8-1-12.3-4.3-4-4.5-5.2-9-5-15 1.7-6 5-9.5 10-13a21 21 0 0 1 14-.3zM119.4 363c4.4 2.4 7.3 4.8 9.7 9.2 1.6 6 1 10.4-2 15.8a20 20 0 0 1-8.3 6.8c-6 .7-11.4 1-16.5-2.5a20 20 0 0 1-6.9-14c.8-6.7 3.7-10 8.7-14.3 4.8-3.3 10-2.7 15.3-1zm20.4-72.6c5 2.5 8 6.4 10 11.4 1 5.6.3 10.2-3 15-3.4 4-8.5 6.4-13.8 6.3a18 18 0 0 1-11.2-3.3c-4.8-5.2-5.3-9.4-5.2-16.3.4-5 2.7-7.3 6.3-10.4 5.2-4 10.6-4.6 17-2.7z"/><path d="M154.4 275.2c7 5 12.8 12 14.5 20.5-.4 3-.4 3-1 5-1.9-.2-1.9-.2-4-1-1-1.8-1-1.8-2-4.2a32 32 0 0 0-18-18.7 35 35 0 0 0-25 2 33.7 33.7 0 0 0-16 20c-1 9.8-.4 18.2 5.8 26.2 1.6 2.3 1.4 4 1.2 6.7-2.3.3-2.3.3-5 0a40.5 40.5 0 0 1-9.3-28.7c1.1-11 7-20 15.4-27 13-8.8 30-9 43.4-.8zm264.7-1.2c9 6.3 15.7 14.8 17.8 25.7 1 11.3-1 21-8 30l-2 2-4-1c.7-3.3 2-6 3.5-9a37.2 37.2 0 0 0 3-26c-3.5-9.2-9.5-14-18-18a34 34 0 0 0-24.5 0 39.8 39.8 0 0 0-19 23h-4a32 32 0 0 1 8-20h2v-2l5-3.5 3-1.8c11-6 26.3-5.8 37.2.6zM290 240.7c4.2 3.5 8.1 7.1 12 11l3 2.5c3 2.5 3 2.5 5 5 2.4 3 5.3 5.4 8.4 8l1.6 1.5v2h2a34.8 34.8 0 0 1 3 3.5c2.2 2.7 2.2 2.7 5 4.5v2l4 2v2l1.7.7c3 1.7 5 3.8 7.3 6.3l2.7 2.6c2.3 2.4 2.3 2.4 4.3 5.4-.4 2.2-.4 2.2-1 4-4 0-4 0-5.5-1.3l-1.4-1.9c-2.5-3-5.2-6-8-8.8l-4.3-4.2-2.4-2.4-13.8-13.8-6.8-6.8a3422.4 3422.4 0 0 1-9.8-9.7l-5-4.8-1.5-1.5a101.4 101.4 0 0 1-3.5-3.8v-2zm139 102c9 2 16 6 21.8 13.3 6.4 10 7.8 20.7 5.7 32.4a32 32 0 0 1-12.5 18.3h-4c.3-3.8 1.5-5.8 3.8-8.6 5-6.3 8-14 7.6-22a35 35 0 0 0-8.4-18.4v-2l-1.6-.8a286.2 286.2 0 0 1-8-4.3l-3-1.6-2.4-1.3zm-324 1v4l-5.2 3-3 1.5-5 2.5c-2.3 1.3-2.8 2.6-3.8 5l-1.2 2.2a33.1 33.1 0 0 0-3.7 25.3 34.1 34.1 0 0 0 8.6 14c1.3 1.5 1.3 1.5 1.3 5.5-2.5 0-2.5 0-6-1A36.5 36.5 0 0 1 75.7 379a40 40 0 0 1 11.4-28c4.6-4.3 11.3-9.7 17.8-7.3zm87-22a36 36 0 0 1 21.5 11.3 44.3 44.3 0 0 1 8.5 33.7c-1.8 7-5 12.8-10 18l-5-1a23 23 0 0 1 4-8.8 30.8 30.8 0 0 0 5-21.2 35.2 35.2 0 0 0-16-23c-3-1.5-6-2.8-9-4zm150 1c0 2.3 0 2.3-1 5-2 1.2-4.3 2-6.6 3-7.8 3.3-11.7 8.4-15.4 16a31.1 31.1 0 0 0 .8 24.4 34.9 34.9 0 0 0 4 6.6c2.2 3 2.2 3 2 5.2l-.8 1.8c-3.4-.3-4.7-.6-7-3.2a42.9 42.9 0 0 1-6.5-32.5 38 38 0 0 1 17.5-23.3c8.3-4.6 8.3-4.6 13-3z"/><path fill="#fff" d="M427.2 363c4 2.6 7 5.1 9.1 9.5 1.1 5.7.6 10.3-2 15.5-2.8 3.5-6.5 6-10.7 7.6-5.4.2-10.7-.8-15-4a21.2 21.2 0 0 1-6-13.3c.5-5.4 2.1-9.5 6-13.2 6-4.2 11.7-4.7 18.6-2.2zm-19-71.7c5 4.4 8.4 7.7 8.8 14.4-.2 5.7-2 10-6 14-5.2 3.5-10 3.7-16 3-5.4-1.8-7.9-4.6-11-9-1.8-5-2.2-9.6 0-14.5 5.6-8.9 14.3-12.7 24.2-7.9zm-53.3 51c5.4 2.5 8 7 10 12.4.8 5-.2 8.8-2.6 13.1a18 18 0 0 1-11.8 7.4c-5.4.3-9.5-.7-13.9-3.9a20.7 20.7 0 0 1-6.2-13c.8-5.4 2.3-9.5 6.2-13.2a20 20 0 0 1 18.3-2.8z"/></svg>